<mxfile host="app.diagrams.net" modified="2024-01-05T15:02:45.088Z" agent="Mozilla/5.0 (Windows NT 10.0; Win64; x64) AppleWebKit/537.36 (KHTML, like Gecko) Chrome/120.0.0.0 Safari/537.36" etag="BKgsl_famCROEiyZwROo" version="22.1.16" type="device">
  <diagram name="PÃ¡gina-1" id="7x2fmesRiPZ4M0jJuliP">
    <mxGraphModel dx="1267" dy="708" grid="1" gridSize="10" guides="1" tooltips="1" connect="1" arrows="1" fold="1" page="1" pageScale="1" pageWidth="827" pageHeight="1169" math="1" shadow="0">
      <root>
        <mxCell id="0" />
        <mxCell id="1" parent="0" />
        <mxCell id="LxAOdA9R8CcLWUHo1WCZ-18" style="edgeStyle=orthogonalEdgeStyle;rounded=0;orthogonalLoop=1;jettySize=auto;html=1;exitX=0;exitY=0;exitDx=140;exitDy=25;exitPerimeter=0;entryX=-0.001;entryY=0.36;entryDx=0;entryDy=0;entryPerimeter=0;" parent="1" source="LxAOdA9R8CcLWUHo1WCZ-1" target="LxAOdA9R8CcLWUHo1WCZ-15" edge="1">
          <mxGeometry relative="1" as="geometry">
            <mxPoint x="260" y="155" as="targetPoint" />
          </mxGeometry>
        </mxCell>
        <mxCell id="LxAOdA9R8CcLWUHo1WCZ-1" value="" style="shape=cube;whiteSpace=wrap;html=1;boundedLbl=1;backgroundOutline=1;darkOpacity=0.05;darkOpacity2=0.1;fillColor=#d5e8d4;strokeColor=#82b366;" parent="1" vertex="1">
          <mxGeometry x="40" y="108" width="140" height="30" as="geometry" />
        </mxCell>
        <mxCell id="LxAOdA9R8CcLWUHo1WCZ-21" style="edgeStyle=orthogonalEdgeStyle;rounded=0;orthogonalLoop=1;jettySize=auto;html=1;exitX=0;exitY=0;exitDx=140;exitDy=25;exitPerimeter=0;entryX=0;entryY=0.5;entryDx=0;entryDy=0;" parent="1" source="LxAOdA9R8CcLWUHo1WCZ-2" edge="1">
          <mxGeometry relative="1" as="geometry">
            <mxPoint x="260" y="117" as="targetPoint" />
          </mxGeometry>
        </mxCell>
        <mxCell id="LxAOdA9R8CcLWUHo1WCZ-2" value="" style="shape=cube;whiteSpace=wrap;html=1;boundedLbl=1;backgroundOutline=1;darkOpacity=0.05;darkOpacity2=0.1;fillColor=#d5e8d4;strokeColor=#82b366;" parent="1" vertex="1">
          <mxGeometry x="40" y="92" width="140" height="30" as="geometry" />
        </mxCell>
        <mxCell id="LxAOdA9R8CcLWUHo1WCZ-16" style="edgeStyle=orthogonalEdgeStyle;rounded=0;orthogonalLoop=1;jettySize=auto;html=1;exitX=0;exitY=0;exitDx=140;exitDy=25;exitPerimeter=0;entryX=0.002;entryY=0.187;entryDx=0;entryDy=0;entryPerimeter=0;" parent="1" source="LxAOdA9R8CcLWUHo1WCZ-3" target="LxAOdA9R8CcLWUHo1WCZ-15" edge="1">
          <mxGeometry relative="1" as="geometry">
            <mxPoint x="260" y="79" as="targetPoint" />
          </mxGeometry>
        </mxCell>
        <mxCell id="LxAOdA9R8CcLWUHo1WCZ-3" value="" style="shape=cube;whiteSpace=wrap;html=1;boundedLbl=1;backgroundOutline=1;darkOpacity=0.05;darkOpacity2=0.1;fillColor=#d5e8d4;strokeColor=#82b366;" parent="1" vertex="1">
          <mxGeometry x="40" y="78" width="140" height="30" as="geometry" />
        </mxCell>
        <mxCell id="LxAOdA9R8CcLWUHo1WCZ-4" value="Source cities&lt;br&gt;(processed data)" style="text;html=1;strokeColor=none;fillColor=none;align=center;verticalAlign=middle;whiteSpace=wrap;rounded=0;fontColor=#336600;" parent="1" vertex="1">
          <mxGeometry x="55" y="138" width="110" height="30" as="geometry" />
        </mxCell>
        <mxCell id="LxAOdA9R8CcLWUHo1WCZ-19" style="edgeStyle=orthogonalEdgeStyle;rounded=0;orthogonalLoop=1;jettySize=auto;html=1;exitX=0;exitY=0;exitDx=140;exitDy=25;exitPerimeter=0;entryX=0.007;entryY=0.915;entryDx=0;entryDy=0;entryPerimeter=0;" parent="1" source="LxAOdA9R8CcLWUHo1WCZ-9" target="LxAOdA9R8CcLWUHo1WCZ-15" edge="1">
          <mxGeometry relative="1" as="geometry" />
        </mxCell>
        <mxCell id="LxAOdA9R8CcLWUHo1WCZ-9" value="" style="shape=cube;whiteSpace=wrap;html=1;boundedLbl=1;backgroundOutline=1;darkOpacity=0.05;darkOpacity2=0.1;fillColor=#f8cecc;strokeColor=#b85450;" parent="1" vertex="1">
          <mxGeometry x="40" y="204" width="140" height="30" as="geometry" />
        </mxCell>
        <mxCell id="LxAOdA9R8CcLWUHo1WCZ-10" value="Target city&lt;br&gt;(processed data)" style="text;html=1;strokeColor=none;fillColor=none;align=center;verticalAlign=middle;whiteSpace=wrap;rounded=0;fontColor=#660000;" parent="1" vertex="1">
          <mxGeometry x="55" y="239" width="110" height="30" as="geometry" />
        </mxCell>
        <mxCell id="LxAOdA9R8CcLWUHo1WCZ-15" value="Feature &lt;br&gt;Extractor" style="rounded=0;whiteSpace=wrap;html=1;fillColor=#ffe6cc;strokeColor=#d79b00;" parent="1" vertex="1">
          <mxGeometry x="260" y="70.5" width="70" height="174" as="geometry" />
        </mxCell>
        <mxCell id="LxAOdA9R8CcLWUHo1WCZ-112" value="$$\mathcal{X}_{T, 1:t_T}$$" style="text;html=1;strokeColor=none;fillColor=none;align=center;verticalAlign=middle;whiteSpace=wrap;rounded=0;fontColor=#660000;" parent="1" vertex="1">
          <mxGeometry x="80" y="174" width="60" height="30" as="geometry" />
        </mxCell>
        <mxCell id="LxAOdA9R8CcLWUHo1WCZ-115" value="$$ \{\mathcal{X}_{S1}, ..., \mathcal{X}_{Sn}\}_{1:t_S}$$" style="text;html=1;strokeColor=none;fillColor=none;align=center;verticalAlign=middle;whiteSpace=wrap;rounded=0;fontColor=#336600;" parent="1" vertex="1">
          <mxGeometry x="50" y="40" width="110" height="30" as="geometry" />
        </mxCell>
        <mxCell id="sxZxfcBBlLXNjxz-TaKH-1" value="" style="shape=cube;whiteSpace=wrap;html=1;boundedLbl=1;backgroundOutline=1;darkOpacity=0.05;darkOpacity2=0.1;fillColor=#f8cecc;strokeColor=#b85450;" parent="1" vertex="1">
          <mxGeometry x="570" y="143.75" width="140" height="20" as="geometry" />
        </mxCell>
        <mxCell id="sxZxfcBBlLXNjxz-TaKH-2" value="Prediction on target city" style="text;html=1;strokeColor=none;fillColor=none;align=center;verticalAlign=middle;whiteSpace=wrap;rounded=0;fontColor=#660000;" parent="1" vertex="1">
          <mxGeometry x="595" y="172" width="90" height="30" as="geometry" />
        </mxCell>
        <mxCell id="sxZxfcBBlLXNjxz-TaKH-3" value="$$\mathcal{X}_{T, t_T+1}$$" style="text;html=1;strokeColor=none;fillColor=none;align=center;verticalAlign=middle;whiteSpace=wrap;rounded=0;fontColor=#660000;" parent="1" vertex="1">
          <mxGeometry x="610" y="114" width="60" height="30" as="geometry" />
        </mxCell>
        <mxCell id="6yX8p0fEQagD2ALPLdG7-7" value="$$\mathcal{L}_{\text{feat}}$$" style="text;html=1;align=center;verticalAlign=middle;whiteSpace=wrap;rounded=0;fontColor=#ba5b57;fontSize=25;" parent="1" vertex="1">
          <mxGeometry x="414" y="330" width="60" height="30" as="geometry" />
        </mxCell>
        <mxCell id="6yX8p0fEQagD2ALPLdG7-8" value="" style="endArrow=classic;html=1;rounded=0;entryX=-0.004;entryY=0.204;entryDx=0;entryDy=0;entryPerimeter=0;exitX=0.998;exitY=0.201;exitDx=0;exitDy=0;exitPerimeter=0;" parent="1" source="LxAOdA9R8CcLWUHo1WCZ-15" target="j_N0aDfHl6tnnaVdh9fi-17" edge="1">
          <mxGeometry width="50" height="50" relative="1" as="geometry">
            <mxPoint x="330" y="80.5" as="sourcePoint" />
            <mxPoint x="471.0999999999999" y="80.72400000000005" as="targetPoint" />
          </mxGeometry>
        </mxCell>
        <mxCell id="6yX8p0fEQagD2ALPLdG7-9" value="" style="endArrow=classic;html=1;rounded=0;exitX=1.002;exitY=0.396;exitDx=0;exitDy=0;entryX=0.001;entryY=0.398;entryDx=0;entryDy=0;entryPerimeter=0;exitPerimeter=0;" parent="1" source="LxAOdA9R8CcLWUHo1WCZ-15" target="j_N0aDfHl6tnnaVdh9fi-17" edge="1">
          <mxGeometry width="50" height="50" relative="1" as="geometry">
            <mxPoint x="330" y="118.5" as="sourcePoint" />
            <mxPoint x="470.20000000000005" y="120.34100000000001" as="targetPoint" />
          </mxGeometry>
        </mxCell>
        <mxCell id="6yX8p0fEQagD2ALPLdG7-10" value="" style="endArrow=classic;html=1;rounded=0;exitX=1.002;exitY=0.604;exitDx=0;exitDy=0;entryX=-0.004;entryY=0.604;entryDx=0;entryDy=0;exitPerimeter=0;entryPerimeter=0;" parent="1" source="LxAOdA9R8CcLWUHo1WCZ-15" target="j_N0aDfHl6tnnaVdh9fi-17" edge="1">
          <mxGeometry width="50" height="50" relative="1" as="geometry">
            <mxPoint x="330" y="155.5" as="sourcePoint" />
            <mxPoint x="470.79999999999995" y="156.32499999999993" as="targetPoint" />
          </mxGeometry>
        </mxCell>
        <mxCell id="6yX8p0fEQagD2ALPLdG7-11" value="" style="endArrow=classic;html=1;rounded=0;exitX=1.002;exitY=0.798;exitDx=0;exitDy=0;entryX=-0.004;entryY=0.802;entryDx=0;entryDy=0;entryPerimeter=0;exitPerimeter=0;" parent="1" source="LxAOdA9R8CcLWUHo1WCZ-15" target="j_N0aDfHl6tnnaVdh9fi-17" edge="1">
          <mxGeometry width="50" height="50" relative="1" as="geometry">
            <mxPoint x="330" y="229.5" as="sourcePoint" />
            <mxPoint x="470.3000000000002" y="230.36900000000003" as="targetPoint" />
          </mxGeometry>
        </mxCell>
        <mxCell id="6yX8p0fEQagD2ALPLdG7-15" value="" style="shape=waypoint;sketch=0;fillStyle=solid;size=6;pointerEvents=1;points=[];fillColor=none;resizable=0;rotatable=0;perimeter=centerPerimeter;snapToPoint=1;" parent="1" vertex="1">
          <mxGeometry x="360" y="95" width="20" height="20" as="geometry" />
        </mxCell>
        <mxCell id="6yX8p0fEQagD2ALPLdG7-16" value="" style="shape=waypoint;sketch=0;fillStyle=solid;size=6;pointerEvents=1;points=[];fillColor=none;resizable=0;rotatable=0;perimeter=centerPerimeter;snapToPoint=1;" parent="1" vertex="1">
          <mxGeometry x="390" y="129.5" width="20" height="20" as="geometry" />
        </mxCell>
        <mxCell id="6yX8p0fEQagD2ALPLdG7-17" value="" style="shape=waypoint;sketch=0;fillStyle=solid;size=6;pointerEvents=1;points=[];fillColor=none;resizable=0;rotatable=0;perimeter=centerPerimeter;snapToPoint=1;" parent="1" vertex="1">
          <mxGeometry x="412" y="165" width="20" height="20" as="geometry" />
        </mxCell>
        <mxCell id="6yX8p0fEQagD2ALPLdG7-23" value="" style="shape=waypoint;sketch=0;fillStyle=solid;size=6;pointerEvents=1;points=[];fillColor=none;resizable=0;rotatable=0;perimeter=centerPerimeter;snapToPoint=1;" parent="1" vertex="1">
          <mxGeometry x="440" y="200" width="20" height="20" as="geometry" />
        </mxCell>
        <mxCell id="6yX8p0fEQagD2ALPLdG7-39" value="&lt;font style=&quot;font-size: 25px;&quot;&gt;$$\mathcal{L}_{\text{pred}}$$&lt;/font&gt;" style="text;strokeColor=none;fillColor=none;html=1;fontSize=25;fontStyle=1;verticalAlign=middle;align=center;fontColor=#ba5b57;" parent="1" vertex="1">
          <mxGeometry x="610" y="194" width="100" height="40" as="geometry" />
        </mxCell>
        <mxCell id="j_N0aDfHl6tnnaVdh9fi-17" value="Predictor" style="rounded=0;whiteSpace=wrap;html=1;fillColor=#ffe6cc;strokeColor=#d79b00;" parent="1" vertex="1">
          <mxGeometry x="470" y="70" width="60" height="174" as="geometry" />
        </mxCell>
        <mxCell id="j_N0aDfHl6tnnaVdh9fi-19" style="edgeStyle=orthogonalEdgeStyle;rounded=0;orthogonalLoop=1;jettySize=auto;html=1;exitX=1;exitY=0.5;exitDx=0;exitDy=0;entryX=0.071;entryY=0.664;entryDx=0;entryDy=0;entryPerimeter=0;" parent="1" source="j_N0aDfHl6tnnaVdh9fi-17" target="sxZxfcBBlLXNjxz-TaKH-1" edge="1">
          <mxGeometry relative="1" as="geometry" />
        </mxCell>
        <mxCell id="ibzIA4ReoCRqNx5BOXAe-2" value="" style="endArrow=classic;html=1;rounded=0;exitX=0.5;exitY=1;exitDx=0;exitDy=0;" parent="1" source="LxAOdA9R8CcLWUHo1WCZ-15" edge="1">
          <mxGeometry width="50" height="50" relative="1" as="geometry">
            <mxPoint x="350" y="310" as="sourcePoint" />
            <mxPoint x="295" y="270" as="targetPoint" />
          </mxGeometry>
        </mxCell>
        <mxCell id="ibzIA4ReoCRqNx5BOXAe-3" value="Domain &lt;br&gt;Discriminator" style="rounded=0;whiteSpace=wrap;html=1;fillColor=#f5f5f5;fontColor=#333333;strokeColor=#666666;" parent="1" vertex="1">
          <mxGeometry x="260" y="269" width="80" height="40" as="geometry" />
        </mxCell>
        <mxCell id="ibzIA4ReoCRqNx5BOXAe-4" value="$$\mathcal{L}_{\text{DAN}}$$" style="text;html=1;align=center;verticalAlign=middle;whiteSpace=wrap;rounded=0;fontColor=#ba5b57;fontSize=25;" parent="1" vertex="1">
          <mxGeometry x="260" y="309" width="60" height="30" as="geometry" />
        </mxCell>
        <mxCell id="ibzIA4ReoCRqNx5BOXAe-5" value="Decoder" style="rounded=0;whiteSpace=wrap;html=1;fillColor=#ffe6cc;strokeColor=#d79b00;" parent="1" vertex="1">
          <mxGeometry x="354" y="280" width="120" height="50" as="geometry" />
        </mxCell>
        <mxCell id="ibzIA4ReoCRqNx5BOXAe-6" value="" style="endArrow=classic;html=1;rounded=0;entryX=0.802;entryY=0.004;entryDx=0;entryDy=0;entryPerimeter=0;" parent="1" source="6yX8p0fEQagD2ALPLdG7-23" target="ibzIA4ReoCRqNx5BOXAe-5" edge="1">
          <mxGeometry width="50" height="50" relative="1" as="geometry">
            <mxPoint x="460" y="350" as="sourcePoint" />
            <mxPoint x="450" y="400" as="targetPoint" />
          </mxGeometry>
        </mxCell>
        <mxCell id="ibzIA4ReoCRqNx5BOXAe-7" value="" style="endArrow=classic;html=1;rounded=0;entryX=0.569;entryY=-0.003;entryDx=0;entryDy=0;entryPerimeter=0;" parent="1" source="6yX8p0fEQagD2ALPLdG7-17" target="ibzIA4ReoCRqNx5BOXAe-5" edge="1">
          <mxGeometry width="50" height="50" relative="1" as="geometry">
            <mxPoint x="421.83" y="210" as="sourcePoint" />
            <mxPoint x="421.83" y="400" as="targetPoint" />
          </mxGeometry>
        </mxCell>
        <mxCell id="ibzIA4ReoCRqNx5BOXAe-8" value="" style="endArrow=classic;html=1;rounded=0;entryX=0.377;entryY=0.001;entryDx=0;entryDy=0;entryPerimeter=0;" parent="1" source="6yX8p0fEQagD2ALPLdG7-16" target="ibzIA4ReoCRqNx5BOXAe-5" edge="1">
          <mxGeometry width="50" height="50" relative="1" as="geometry">
            <mxPoint x="400" y="176.5" as="sourcePoint" />
            <mxPoint x="399.83" y="401.5" as="targetPoint" />
          </mxGeometry>
        </mxCell>
        <mxCell id="ibzIA4ReoCRqNx5BOXAe-9" value="" style="endArrow=classic;html=1;rounded=0;entryX=0.133;entryY=-0.003;entryDx=0;entryDy=0;entryPerimeter=0;" parent="1" source="6yX8p0fEQagD2ALPLdG7-15" target="ibzIA4ReoCRqNx5BOXAe-5" edge="1">
          <mxGeometry width="50" height="50" relative="1" as="geometry">
            <mxPoint x="370" y="138.5" as="sourcePoint" />
            <mxPoint x="369.83" y="400" as="targetPoint" />
          </mxGeometry>
        </mxCell>
      </root>
    </mxGraphModel>
  </diagram>
</mxfile>
